Coordinates
version=1
nRows=21
nColumns=12
inDegrees=yes

Units are S.I. units (second, meters, Newtons, ...)
Angles are in degrees

endheader
time	SC_y	SC_z	SC_x	AC_y	AC_z	AC_x	GH_y	GH_z	GH_yy	EL_x	PS_y
       0.0              -20.71          12.31          44.07          48.71         -4.238          9.632         -3.865         -18.89         -33.25          87.91          130.6
   0.04806              -20.71          12.31          44.06          48.71         -4.238          9.632         -3.891         -18.88         -33.23           87.9          130.6
   0.09613              -20.71          12.32          44.06          48.71         -4.238          9.633         -3.918         -18.88         -33.22           87.9          130.6
    0.1442              -20.72          12.32          44.06          48.71         -4.237          9.633         -3.947         -18.88          -33.2          87.89          130.6
    0.1923              -20.72          12.32          44.06          48.71         -4.237          9.633         -3.978         -18.87         -33.18          87.89          130.6
    0.2403              -20.72          12.32          44.06          48.71         -4.237          9.634          -4.01         -18.87         -33.17          87.88          130.6
    0.2884              -20.72          12.33          44.06          48.72         -4.237          9.634         -4.045         -18.86         -33.15          87.88          130.6
    0.3365              -20.72          12.33          44.05          48.72         -4.237          9.634         -4.083         -18.86         -33.13          87.87          130.6
    0.3845              -20.73          12.33          44.05          48.72         -4.237          9.635         -4.123         -18.85          -33.1          87.87          130.6
    0.4326              -20.73          12.33          44.05          48.72         -4.237          9.635         -4.166         -18.85         -33.08          87.86          130.6
    0.4806              -20.73          12.34          44.05          48.72         -4.237          9.636         -4.212         -18.84         -33.05          87.85          130.6
    0.5287              -20.74          12.34          44.04          48.72         -4.237          9.636         -4.262         -18.84         -33.02          87.85          130.6
    0.5768              -20.74          12.35          44.04          48.73         -4.236          9.637         -4.315         -18.83         -32.99          87.84          130.6
    0.6248              -20.74          12.35          44.04          48.73         -4.236          9.637         -4.373         -18.82         -32.96          87.83          130.6
    0.6729              -20.75          12.35          44.04          48.73         -4.236          9.638         -4.436         -18.81         -32.93          87.82          130.7
     0.721              -20.75          12.36          44.03          48.73         -4.236          9.638         -4.504          -18.8         -32.89          87.81          130.7
     0.769              -20.76          12.36          44.03          48.73         -4.236          9.639         -4.578          -18.8         -32.85           87.8          130.7
    0.8171              -20.76          12.37          44.02          48.74         -4.235           9.64         -4.658         -18.78          -32.8          87.79          130.7
    0.8652              -20.77          12.38          44.02          48.74         -4.235          9.641         -4.746         -18.77         -32.75          87.78          130.7
    0.9132              -20.78          12.38          44.01          48.74         -4.235          9.642         -4.842         -18.76          -32.7          87.76          130.7
    0.9613              -20.78          12.39          44.01          48.75         -4.234          9.643         -4.948         -18.75         -32.64          87.75          130.7
